<svg width="56" height="56" viewBox="0 0 56 56" fill="none" xmlns="http://www.w3.org/2000/svg">
<path d="M28.1965 13.9831C20.3968 13.9831 14.1055 20.2744 14.1055 28.0742C14.1055 35.8739 20.3968 42.1651 28.1965 42.1651C35.9963 42.1651 42.2875 35.8739 42.2875 28.0742C42.2875 20.2744 35.9963 13.9831 28.1965 13.9831ZM28.1965 37.2351C23.1561 37.2351 19.0355 33.1268 19.0355 28.0742C19.0355 23.0215 23.1439 18.9131 28.1965 18.9131C33.2491 18.9131 37.3575 23.0215 37.3575 28.0742C37.3575 33.1268 33.2369 37.2351 28.1965 37.2351ZM46.1506 13.4067C46.1506 15.234 44.679 16.6934 42.8639 16.6934C41.0366 16.6934 39.5772 15.2218 39.5772 13.4067C39.5772 11.5917 41.0488 10.12 42.8639 10.12C44.679 10.12 46.1506 11.5917 46.1506 13.4067ZM55.4832 16.7424C55.2748 12.3398 54.2691 8.43988 51.0438 5.22681C47.8307 2.01373 43.9308 1.00807 39.5282 0.787364C34.9906 0.529863 21.3901 0.529863 16.8525 0.787364C12.4622 0.995798 8.56226 2.00147 5.33692 5.21454C2.11157 8.42762 1.11817 12.3275 0.897472 16.7302C0.63997 21.2678 0.63997 34.8682 0.897472 39.4058C1.10591 43.8084 2.11157 47.7084 5.33692 50.9214C8.56226 54.1345 12.4499 55.1402 16.8525 55.3609C21.3901 55.6185 34.9906 55.6185 39.5282 55.3609C43.9308 55.1524 47.8307 54.1468 51.0438 50.9214C54.2569 47.7084 55.2625 43.8084 55.4832 39.4058C55.7408 34.8682 55.7408 21.28 55.4832 16.7424ZM49.6213 44.2745C48.6647 46.6782 46.8128 48.53 44.3969 49.4989C40.7791 50.9337 32.1945 50.6026 28.1965 50.6026C24.1985 50.6026 15.6016 50.9214 11.9961 49.4989C9.59246 48.5423 7.74059 46.6904 6.77182 44.2745C5.33692 40.6567 5.66802 32.0721 5.66802 28.0742C5.66802 24.0761 5.34918 15.4793 6.77182 11.8738C7.72832 9.47009 9.58019 7.61822 11.9961 6.64945C15.6139 5.21454 24.1985 5.54564 28.1965 5.54564C32.1945 5.54564 40.7913 5.22681 44.3969 6.64945C46.8005 7.60595 48.6524 9.45782 49.6213 11.8738C51.0561 15.4915 50.725 24.0761 50.725 28.0742C50.725 32.0721 51.0561 40.669 49.6213 44.2745Z" fill="url(#paint0_radial_1_563)"/>
<defs>
<radialGradient id="paint0_radial_1_563" cx="0" cy="0" r="1" gradientUnits="userSpaceOnUse" gradientTransform="translate(14.2012 44.5925) rotate(90) scale(43.5269 43.5269)">
<stop stop-color="#FFCF6B"/>
<stop offset="0.708168" stop-color="#EB4241"/>
<stop offset="1" stop-color="#A940A2"/>
</radialGradient>
</defs>
</svg>
